<svg width="1223" height="375" viewBox="0 0 1223 375" fill="none" xmlns="http://www.w3.org/2000/svg">
<path opacity="0.3" d="M1222.5 187.5C1222.5 213.151 1205.54 237.683 1174.65 260.079C1143.77 282.466 1099.05 302.647 1043.75 319.604C933.149 353.517 780.326 374.5 611.5 374.5C442.674 374.5 289.851 353.517 179.251 319.604C123.948 302.647 79.2294 282.466 48.3482 260.079C17.4557 237.683 0.5 213.151 0.5 187.5C0.5 161.849 17.4557 137.317 48.3482 114.921C79.2294 92.5343 123.948 72.3528 179.251 55.3955C289.851 21.4829 442.674 0.5 611.5 0.5C780.326 0.5 933.149 21.4829 1043.75 55.3955C1099.05 72.3528 1143.77 92.5343 1174.65 114.921C1205.54 137.317 1222.5 161.849 1222.5 187.5Z" stroke="white"/>
</svg>
